<svg width="202" height="48" viewBox="0 0 202 48" fill="none" xmlns="http://www.w3.org/2000/svg">
<path d="M35.9886 39V17.1818H43.8295V39H35.9886ZM39.9091 14.9091C38.8485 14.9091 37.9394 14.5587 37.1818 13.858C36.4242 13.1572 36.0455 12.3144 36.0455 11.3295C36.0455 10.3447 36.4242 9.50189 37.1818 8.80114C37.9394 8.10038 38.8485 7.75 39.9091 7.75C40.9792 7.75 41.8883 8.10038 42.6364 8.80114C43.3939 9.50189 43.7727 10.3447 43.7727 11.3295C43.7727 12.3144 43.3939 13.1572 42.6364 13.858C41.8883 14.5587 40.9792 14.9091 39.9091 14.9091ZM58.3359 47.6364C56.1484 47.6364 54.2734 47.3239 52.7109 46.6989C51.1579 46.0833 49.9505 45.2311 49.0888 44.142C48.2365 43.0625 47.7583 41.822 47.6541 40.4205H55.2109C55.2867 40.8845 55.4761 41.2585 55.7791 41.5426C56.0821 41.8267 56.4704 42.0303 56.9439 42.1534C57.4268 42.286 57.9666 42.3523 58.5632 42.3523C59.5765 42.3523 60.4145 42.1061 61.0774 41.6136C61.7498 41.1212 62.0859 40.2311 62.0859 38.9432V35.25H61.8587C61.5746 35.9886 61.139 36.6184 60.5518 37.1392C59.9647 37.6506 59.2592 38.0436 58.4354 38.3182C57.6115 38.5833 56.7071 38.7159 55.7223 38.7159C54.1693 38.7159 52.7393 38.3561 51.4325 37.6364C50.1352 36.9167 49.0935 35.7756 48.3075 34.2131C47.531 32.6506 47.1428 30.6098 47.1428 28.0909C47.1428 25.4583 47.55 23.3182 48.3643 21.6705C49.1882 20.0227 50.2488 18.8153 51.5462 18.0483C52.853 17.2812 54.2261 16.8977 55.6655 16.8977C56.745 16.8977 57.692 17.0871 58.5064 17.4659C59.3208 17.8352 60.0026 18.3324 60.5518 18.9574C61.1011 19.5729 61.5178 20.25 61.8018 20.9886H61.9723V17.1818H69.8132V38.9432C69.8132 40.7898 69.335 42.357 68.3786 43.6449C67.4316 44.9422 66.0964 45.9318 64.3729 46.6136C62.6494 47.2955 60.6371 47.6364 58.3359 47.6364ZM58.62 33.1477C59.3397 33.1477 59.9553 32.9489 60.4666 32.5511C60.9875 32.1439 61.3852 31.5663 61.6598 30.8182C61.9439 30.0606 62.0859 29.1515 62.0859 28.0909C62.0859 27.0114 61.9439 26.0881 61.6598 25.321C61.3852 24.5445 60.9875 23.9527 60.4666 23.5455C59.9553 23.1288 59.3397 22.9205 58.62 22.9205C57.9003 22.9205 57.2848 23.1288 56.7734 23.5455C56.2715 23.9527 55.8833 24.5445 55.6087 25.321C55.3435 26.0881 55.2109 27.0114 55.2109 28.0909C55.2109 29.1705 55.3435 30.089 55.6087 30.8466C55.8833 31.5947 56.2715 32.1676 56.7734 32.5653C57.2848 32.9536 57.9003 33.1477 58.62 33.1477ZM81.642 26.7273V39H73.8011V17.1818H81.2443V21.3295H81.4716C81.9451 19.947 82.7784 18.8627 83.9716 18.0767C85.1742 17.2907 86.5758 16.8977 88.1761 16.8977C89.7197 16.8977 91.0597 17.2528 92.196 17.9631C93.3419 18.6638 94.2273 19.6297 94.8523 20.8608C95.4867 22.0919 95.7992 23.4981 95.7898 25.0795V39H87.9489V26.7273C87.9583 25.6477 87.6837 24.8002 87.125 24.1847C86.5758 23.5691 85.8087 23.2614 84.8239 23.2614C84.1799 23.2614 83.6165 23.4034 83.1335 23.6875C82.66 23.9621 82.2955 24.3598 82.0398 24.8807C81.7841 25.392 81.6515 26.0076 81.642 26.7273ZM99.6605 39V17.1818H107.501V39H99.6605ZM103.581 14.9091C102.52 14.9091 101.611 14.5587 100.854 13.858C100.096 13.1572 99.7173 12.3144 99.7173 11.3295C99.7173 10.3447 100.096 9.50189 100.854 8.80114C101.611 8.10038 102.52 7.75 103.581 7.75C104.651 7.75 105.56 8.10038 106.308 8.80114C107.066 9.50189 107.445 10.3447 107.445 11.3295C107.445 12.3144 107.066 13.1572 106.308 13.858C105.56 14.5587 104.651 14.9091 103.581 14.9091Z" fill="#4EA8DE"/>
<path d="M124.508 17.1818V22.8636H110.133V17.1818H124.508ZM112.917 11.9545H120.758V31.983C120.758 32.286 120.81 32.5417 120.914 32.75C121.018 32.9489 121.179 33.1004 121.397 33.2045C121.615 33.2992 121.894 33.3466 122.235 33.3466C122.472 33.3466 122.746 33.3182 123.059 33.2614C123.381 33.2045 123.618 33.1572 123.769 33.1193L124.906 38.6307C124.555 38.7348 124.053 38.8627 123.4 39.0142C122.756 39.1657 121.989 39.2652 121.099 39.3125C119.299 39.4072 117.789 39.2225 116.567 38.7585C115.346 38.285 114.427 37.5417 113.812 36.5284C113.196 35.5152 112.898 34.2462 112.917 32.7216V11.9545ZM137.984 39.3977C135.617 39.3977 133.59 38.929 131.905 37.9915C130.219 37.0445 128.927 35.7282 128.027 34.0426C127.127 32.3475 126.678 30.3826 126.678 28.1477C126.678 25.9129 127.127 23.9527 128.027 22.267C128.927 20.572 130.219 19.2557 131.905 18.3182C133.59 17.3712 135.617 16.8977 137.984 16.8977C140.352 16.8977 142.378 17.3712 144.064 18.3182C145.75 19.2557 147.042 20.572 147.942 22.267C148.841 23.9527 149.291 25.9129 149.291 28.1477C149.291 30.3826 148.841 32.3475 147.942 34.0426C147.042 35.7282 145.75 37.0445 144.064 37.9915C142.378 38.929 140.352 39.3977 137.984 39.3977ZM138.041 33.6023C138.704 33.6023 139.277 33.3797 139.76 32.9347C140.243 32.4896 140.617 31.8551 140.882 31.0312C141.147 30.2074 141.28 29.2273 141.28 28.0909C141.28 26.9451 141.147 25.965 140.882 25.1506C140.617 24.3267 140.243 23.6922 139.76 23.2472C139.277 22.8021 138.704 22.5795 138.041 22.5795C137.34 22.5795 136.739 22.8021 136.237 23.2472C135.735 23.6922 135.352 24.3267 135.087 25.1506C134.821 25.965 134.689 26.9451 134.689 28.0909C134.689 29.2273 134.821 30.2074 135.087 31.0312C135.352 31.8551 135.735 32.4896 136.237 32.9347C136.739 33.3797 137.34 33.6023 138.041 33.6023ZM160.371 39.2841C158.818 39.2841 157.388 38.8769 156.081 38.0625C154.784 37.2481 153.742 36.0123 152.956 34.3551C152.179 32.6979 151.791 30.6098 151.791 28.0909C151.791 25.4583 152.198 23.3182 153.013 21.6705C153.837 20.0227 154.897 18.8153 156.195 18.0483C157.501 17.2812 158.875 16.8977 160.314 16.8977C161.393 16.8977 162.34 17.0871 163.155 17.4659C163.969 17.8352 164.651 18.3324 165.2 18.9574C165.75 19.5729 166.166 20.25 166.45 20.9886H166.564V9.90909H174.405V39H166.621V35.4205H166.45C166.147 36.1591 165.712 36.822 165.143 37.4091C164.585 37.9867 163.903 38.446 163.098 38.7869C162.303 39.1184 161.393 39.2841 160.371 39.2841ZM163.268 33.2614C163.988 33.2614 164.604 33.053 165.115 32.6364C165.636 32.2102 166.034 31.6136 166.308 30.8466C166.592 30.0701 166.734 29.1515 166.734 28.0909C166.734 27.0114 166.592 26.0881 166.308 25.321C166.034 24.5445 165.636 23.9527 165.115 23.5455C164.604 23.1288 163.988 22.9205 163.268 22.9205C162.549 22.9205 161.933 23.1288 161.422 23.5455C160.92 23.9527 160.532 24.5445 160.257 25.321C159.992 26.0881 159.859 27.0114 159.859 28.0909C159.859 29.1705 159.992 30.0985 160.257 30.875C160.532 31.642 160.92 32.2339 161.422 32.6506C161.933 33.0578 162.549 33.2614 163.268 33.2614ZM188.766 39.3977C186.398 39.3977 184.372 38.929 182.686 37.9915C181 37.0445 179.708 35.7282 178.808 34.0426C177.909 32.3475 177.459 30.3826 177.459 28.1477C177.459 25.9129 177.909 23.9527 178.808 22.267C179.708 20.572 181 19.2557 182.686 18.3182C184.372 17.3712 186.398 16.8977 188.766 16.8977C191.133 16.8977 193.16 17.3712 194.845 18.3182C196.531 19.2557 197.823 20.572 198.723 22.267C199.623 23.9527 200.072 25.9129 200.072 28.1477C200.072 30.3826 199.623 32.3475 198.723 34.0426C197.823 35.7282 196.531 37.0445 194.845 37.9915C193.16 38.929 191.133 39.3977 188.766 39.3977ZM188.822 33.6023C189.485 33.6023 190.058 33.3797 190.541 32.9347C191.024 32.4896 191.398 31.8551 191.663 31.0312C191.929 30.2074 192.061 29.2273 192.061 28.0909C192.061 26.9451 191.929 25.965 191.663 25.1506C191.398 24.3267 191.024 23.6922 190.541 23.2472C190.058 22.8021 189.485 22.5795 188.822 22.5795C188.122 22.5795 187.52 22.8021 187.018 23.2472C186.517 23.6922 186.133 24.3267 185.868 25.1506C185.603 25.965 185.47 26.9451 185.47 28.0909C185.47 29.2273 185.603 30.2074 185.868 31.0312C186.133 31.8551 186.517 32.4896 187.018 32.9347C187.52 33.3797 188.122 33.6023 188.822 33.6023Z" fill="#5E60CE"/>
<g clip-path="url(#clip0_43_109)">
<path d="M11.0215 12.933C14.1472 16.9011 15.8158 21.7944 15.7553 26.8155V28.0141L16.7865 28.6416C18.119 29.4482 19.1127 30.6993 19.5866 32.1669C19.1705 31.8605 18.7352 31.5803 18.2833 31.3278L15.5333 29.7838L15.0391 32.9001C14.9963 33.1755 14.9389 33.4485 14.8672 33.718H7.16151C7.04692 33.3655 6.95382 33.0129 6.86789 32.6463L6.24484 29.8261L3.70968 31.2362C3.28615 31.473 2.87723 31.7344 2.48507 32.0188C2.96824 30.5682 3.94123 29.3242 5.24224 28.4935L6.22336 27.866V26.7521C6.24106 21.7513 7.92967 16.8952 11.0287 12.933H11.0215ZM11.0287 10C10.868 10.0004 10.7128 10.058 10.5918 10.1622L10.5274 10.2186C6.39778 14.7656 4.10466 20.6454 4.08208 26.745C2.32967 27.8643 1.03251 29.5543 0.417263 31.5197C-0.197979 33.485 -0.0921719 35.6007 0.716194 37.4971C1.56776 35.6455 2.99131 34.1058 4.7839 33.0975C4.96368 33.8642 5.2031 34.6161 5.50005 35.3467C5.53771 35.4871 5.62118 35.6114 5.73763 35.7006C5.85408 35.7898 5.99706 35.8388 6.14458 35.8402H16.0847C16.2852 35.8402 16.4857 35.6498 16.586 35.3537C16.8758 34.6592 17.0778 33.9322 17.1875 33.1892C18.9836 34.1932 20.4083 35.7342 21.2553 37.5887C22.1124 35.7017 22.2451 33.5727 21.6287 31.5967C21.0124 29.6206 19.6888 27.9319 17.9037 26.8437C17.9745 20.7082 15.6935 14.7718 11.5157 10.2186C11.4535 10.1501 11.3773 10.0952 11.2922 10.0576C11.2071 10.0199 11.1149 10.0003 11.0215 10H11.0287Z" fill="#4EA8DE"/>
<path d="M11.0216 26.1598C10.4715 26.1598 9.93376 25.9995 9.47611 25.699C9.01846 25.3986 8.6614 24.9715 8.44993 24.4716C8.23847 23.9716 8.18206 23.4213 8.28782 22.8898C8.39358 22.3584 8.65678 21.8697 9.04423 21.4853C9.43169 21.1009 9.92606 20.838 10.465 20.7298C11.004 20.6216 11.5634 20.6729 12.0728 20.8773C12.5822 21.0816 13.0188 21.4298 13.3275 21.8781C13.6361 22.3263 13.8031 22.8545 13.8074 23.396V23.396C13.8159 23.7469 13.7542 24.0961 13.6256 24.4235C13.4971 24.751 13.3043 25.0503 13.0582 25.3043C12.8121 25.5583 12.5176 25.7622 12.1915 25.9041C11.8654 26.0461 11.5141 26.1234 11.1576 26.1316C11.1126 26.1387 11.0666 26.1387 11.0216 26.1316V26.1598Z" fill="#4EA8DE"/>
<path d="M14.8959 37.5958C14.7167 37.5901 14.5382 37.6198 14.3708 37.683C14.2034 37.7462 14.0505 37.8416 13.9211 37.9638C13.7917 38.086 13.6884 38.2323 13.6172 38.3943C13.546 38.5563 13.5084 38.7307 13.5066 38.9072V43.067C13.5066 43.4297 13.653 43.7776 13.9135 44.0342C14.1741 44.2907 14.5274 44.4348 14.8959 44.4348C15.2644 44.4348 15.6178 44.2907 15.8783 44.0342C16.1389 43.7776 16.2852 43.4297 16.2852 43.067V38.9636C16.291 38.7877 16.2611 38.6126 16.1973 38.4482C16.1336 38.2839 16.0372 38.1337 15.9139 38.0064C15.7906 37.879 15.6428 37.7772 15.4791 37.7067C15.3154 37.6362 15.139 37.5985 14.9604 37.5958H14.8959Z" fill="#5E60CE"/>
<path d="M7.16154 37.5958C6.97931 37.5863 6.797 37.613 6.62546 37.6743C6.45392 37.7356 6.29665 37.8302 6.16302 37.9526C6.02939 38.0749 5.92213 38.2225 5.84761 38.3865C5.77309 38.5505 5.73284 38.7275 5.72925 38.9072V43.067C5.72925 43.4297 5.87562 43.7777 6.13617 44.0342C6.39672 44.2907 6.7501 44.4348 7.11857 44.4348C7.48704 44.4348 7.84042 44.2907 8.10097 44.0342C8.36152 43.7777 8.50789 43.4297 8.50789 43.067V38.9636C8.51362 38.7877 8.48373 38.6126 8.41998 38.4482C8.35623 38.2839 8.25989 38.1337 8.13658 38.0064C8.01326 37.879 7.86544 37.7772 7.70173 37.7067C7.53802 37.6362 7.36169 37.5985 7.18302 37.5958H7.16154Z" fill="#5E60CE"/>
<path d="M10.9213 37.5958C10.7426 37.592 10.5649 37.623 10.3984 37.6869C10.2318 37.7507 10.0797 37.8463 9.95068 37.9681C9.82167 38.0899 9.71828 38.2355 9.64644 38.3966C9.5746 38.5577 9.5357 38.7312 9.53198 38.9072V44.6392C9.53198 45.002 9.67836 45.3499 9.93891 45.6064C10.1995 45.8629 10.5528 46.007 10.9213 46.007C11.2898 46.007 11.6432 45.8629 11.9037 45.6064C12.1643 45.3499 12.3106 45.002 12.3106 44.6392V38.9988C12.3164 38.823 12.2865 38.6478 12.2227 38.4835C12.159 38.3191 12.0626 38.1689 11.9393 38.0416C11.816 37.9143 11.6682 37.8124 11.5045 37.7419C11.3408 37.6714 11.1644 37.6337 10.9858 37.631L10.9213 37.5958Z" fill="#5E60CE"/>
</g>
<defs>
<clipPath id="clip0_43_109">
<rect width="22" height="36" fill="white" transform="translate(0 10)"/>
</clipPath>
</defs>
</svg>
